<svg width="22" height="22" viewBox="0 0 22 22" fill="none" xmlns="http://www.w3.org/2000/svg">
<g clip-path="url(#clip0_110_12)">
<path d="M1.83333 7.79167C1.83333 6.52575 2.85908 5.5 4.125 5.5C5.39092 5.5 6.41667 6.52575 6.41667 7.79167C6.41667 9.05758 5.39092 10.0833 4.125 10.0833C2.85908 10.0833 1.83333 9.05758 1.83333 7.79167ZM10.5417 7.33333C11.8076 7.33333 12.8333 6.30758 12.8333 5.04167C12.8333 3.77575 11.8076 2.75 10.5417 2.75C9.27575 2.75 8.25 3.77575 8.25 5.04167C8.25 6.30758 9.27575 7.33333 10.5417 7.33333ZM16.9583 4.58333C18.2242 4.58333 19.25 3.55758 19.25 2.29167C19.25 1.02575 18.2242 0 16.9583 0C15.6924 0 14.6667 1.02575 14.6667 2.29167C14.6667 3.55758 15.6924 4.58333 16.9583 4.58333ZM17.4167 5.5H16.5C14.4778 5.5 12.8333 7.1445 12.8333 9.16667V12.8333C12.8333 14.1845 13.5758 15.3542 14.6667 15.9903V21.0833C14.6667 21.5893 15.0773 22 15.5833 22C16.0893 22 16.5 21.5893 16.5 21.0833V16.5H17.4167V21.0833C17.4167 21.5893 17.8273 22 18.3333 22C18.8393 22 19.25 21.5893 19.25 21.0833V15.9903C20.3408 15.3542 21.0833 14.1845 21.0833 12.8333V9.16667C21.0833 7.1445 19.4388 5.5 17.4167 5.5ZM11 12.8333V9.16667C11 8.85683 11.0321 8.55433 11.0816 8.25825C11.0541 8.25825 11.0284 8.25 11 8.25H10.0833C8.06117 8.25 6.41667 9.8945 6.41667 11.9167V13.75C6.41667 15.1012 7.15917 16.2708 8.25 16.907V21.0833C8.25 21.5893 8.66067 22 9.16667 22C9.67267 22 10.0833 21.5893 10.0833 21.0833V17.4167H11C11.6701 17.4167 12.2897 17.2232 12.8306 16.9079C11.6811 15.8748 11 14.3935 11 12.8333ZM4.58333 13.75V11.9167C4.58333 11.6041 4.61542 11.2988 4.66583 11H3.20833C1.43917 11 0 12.4392 0 14.2083V15.125C0 16.4001 0.7535 17.4946 1.83333 18.0116V21.0833C1.83333 21.5893 2.244 22 2.75 22C3.256 22 3.66667 21.5893 3.66667 21.0833V18.3333H5.04167C5.58433 18.3333 6.08758 18.1848 6.53583 17.9465C5.34325 16.9363 4.58333 15.4312 4.58333 13.75Z" fill="#009FE3"/>
</g>
<defs>
<clipPath id="clip0_110_12">
<rect width="22" height="22" fill="white"/>
</clipPath>
</defs>
</svg>
