<svg width="20" height="20" viewBox="0 0 20 20" fill="none" xmlns="http://www.w3.org/2000/svg">
<path d="M13.3837 2.04494C13.618 2.27935 13.7497 2.59723 13.7497 2.92869C13.7497 3.26014 13.618 3.57803 13.3837 3.81244L7.19619 9.99994L13.3837 16.1874C13.6114 16.4232 13.7374 16.7389 13.7345 17.0667C13.7317 17.3944 13.6002 17.708 13.3685 17.9397C13.1367 18.1715 12.8232 18.3029 12.4954 18.3058C12.1677 18.3086 11.8519 18.1826 11.6162 17.9549L4.54494 10.8837C4.3106 10.6493 4.17896 10.3314 4.17896 9.99994C4.17896 9.66848 4.3106 9.3506 4.54494 9.11619L11.6162 2.04494C11.8506 1.8106 12.1685 1.67896 12.4999 1.67896C12.8314 1.67896 13.1493 1.8106 13.3837 2.04494Z" fill="#009FE3"/>
</svg>
