<svg width="21" height="21" viewBox="0 0 21 21" fill="none" xmlns="http://www.w3.org/2000/svg">
<g clip-path="url(#clip0_62_776)">
<path d="M17.9691 1.27716C18.3078 1.27716 18.6327 1.41172 18.8722 1.65123C19.1117 1.89074 19.2463 2.21559 19.2463 2.55432V12.7716C19.2463 13.1103 19.1117 13.4352 18.8722 13.6747C18.6327 13.9142 18.3078 14.0488 17.9691 14.0488H14.7762C14.3797 14.0488 13.9886 14.1411 13.6339 14.3184C13.2792 14.4958 12.9707 14.7532 12.7327 15.0705L10.3061 18.3055L7.87954 15.0705C7.64161 14.7532 7.33309 14.4958 6.97841 14.3184C6.62373 14.1411 6.23263 14.0488 5.83608 14.0488H2.64319C2.30446 14.0488 1.97961 13.9142 1.7401 13.6747C1.50058 13.4352 1.36603 13.1103 1.36603 12.7716V2.55432C1.36603 2.21559 1.50058 1.89074 1.7401 1.65123C1.97961 1.41172 2.30446 1.27716 2.64319 1.27716H17.9691ZM2.64319 0C1.96574 0 1.31604 0.269115 0.83701 0.748143C0.357982 1.22717 0.0888672 1.87687 0.0888672 2.55432L0.0888672 12.7716C0.0888672 13.449 0.357982 14.0987 0.83701 14.5778C1.31604 15.0568 1.96574 15.3259 2.64319 15.3259H5.83608C6.03436 15.3259 6.22991 15.3721 6.40725 15.4607C6.58459 15.5494 6.73885 15.6782 6.85781 15.8368L9.28441 19.0718C9.40338 19.2304 9.55764 19.3592 9.73498 19.4478C9.91232 19.5365 10.1079 19.5827 10.3061 19.5827C10.5044 19.5827 10.7 19.5365 10.8773 19.4478C11.0546 19.3592 11.2089 19.2304 11.3279 19.0718L13.7545 15.8368C13.8734 15.6782 14.0277 15.5494 14.205 15.4607C14.3824 15.3721 14.5779 15.3259 14.7762 15.3259H17.9691C18.6465 15.3259 19.2962 15.0568 19.7753 14.5778C20.2543 14.0987 20.5234 13.449 20.5234 12.7716V2.55432C20.5234 1.87687 20.2543 1.22717 19.7753 0.748143C19.2962 0.269115 18.6465 0 17.9691 0L2.64319 0Z" fill="#575756"/>
<path d="M6.47467 7.6629C6.47467 8.00163 6.34011 8.32648 6.1006 8.56599C5.86108 8.8055 5.53623 8.94006 5.19751 8.94006C4.85878 8.94006 4.53393 8.8055 4.29442 8.56599C4.05491 8.32648 3.92035 8.00163 3.92035 7.6629C3.92035 7.32418 4.05491 6.99933 4.29442 6.75981C4.53393 6.5203 4.85878 6.38574 5.19751 6.38574C5.53623 6.38574 5.86108 6.5203 6.1006 6.75981C6.34011 6.99933 6.47467 7.32418 6.47467 7.6629ZM11.5833 7.6629C11.5833 8.00163 11.4487 8.32648 11.2092 8.56599C10.9697 8.8055 10.6449 8.94006 10.3061 8.94006C9.96742 8.94006 9.64257 8.8055 9.40306 8.56599C9.16354 8.32648 9.02899 8.00163 9.02899 7.6629C9.02899 7.32418 9.16354 6.99933 9.40306 6.75981C9.64257 6.5203 9.96742 6.38574 10.3061 6.38574C10.6449 6.38574 10.9697 6.5203 11.2092 6.75981C11.4487 6.99933 11.5833 7.32418 11.5833 7.6629ZM16.6919 7.6629C16.6919 8.00163 16.5574 8.32648 16.3179 8.56599C16.0784 8.8055 15.7535 8.94006 15.4148 8.94006C15.0761 8.94006 14.7512 8.8055 14.5117 8.56599C14.2722 8.32648 14.1376 8.00163 14.1376 7.6629C14.1376 7.32418 14.2722 6.99933 14.5117 6.75981C14.7512 6.5203 15.0761 6.38574 15.4148 6.38574C15.7535 6.38574 16.0784 6.5203 16.3179 6.75981C16.5574 6.99933 16.6919 7.32418 16.6919 7.6629Z" fill="#575756"/>
</g>
<defs>
<clipPath id="clip0_62_776">
<rect width="20.8889" height="20.8889" fill="white" transform="translate(0.0888672)"/>
</clipPath>
</defs>
</svg>
