<svg width="19" height="19" viewBox="0 0 19 19" fill="none" xmlns="http://www.w3.org/2000/svg">
<path d="M15.4375 2.375H3.5625C3.24756 2.375 2.94551 2.50011 2.72281 2.72281C2.50011 2.94551 2.375 3.24756 2.375 3.5625V15.4375C2.375 15.7524 2.50011 16.0545 2.72281 16.2772C2.94551 16.4999 3.24756 16.625 3.5625 16.625H15.4375C15.7524 16.625 16.0545 16.4999 16.2772 16.2772C16.4999 16.0545 16.625 15.7524 16.625 15.4375V3.5625C16.625 3.24756 16.4999 2.94551 16.2772 2.72281C16.0545 2.50011 15.7524 2.375 15.4375 2.375ZM8.3125 12.7656L5.34375 9.82241L6.28781 8.90625L8.3125 10.8929L12.7116 6.53125L13.6562 7.46759L8.3125 12.7656Z" fill="#009FE3"/>
</svg>
