<svg width="16" height="16" viewBox="0 0 16 16" fill="none" xmlns="http://www.w3.org/2000/svg">
<g clip-path="url(#clip0_107_491)">
<path d="M14.2222 0.875C14.6667 0.875 15.0432 1.04861 15.3519 1.39583C15.6605 1.74306 15.8148 2.16667 15.8148 2.66667V13.3333C15.8148 13.8333 15.6605 14.2569 15.3519 14.6042C15.0432 14.9514 14.6667 15.125 14.2222 15.125H1.59259C1.14815 15.125 0.771605 14.9514 0.462963 14.6042C0.154321 14.2569 0 13.8333 0 13.3333V2.66667C0 2.16667 0.154321 1.74306 0.462963 1.39583C0.771605 1.04861 1.14815 0.875 1.59259 0.875H14.2222ZM14.2222 4.45833V2.66667L7.88889 7.125L1.59259 2.66667V4.45833L7.88889 8.875L14.2222 4.45833Z" fill="#009FE3"/>
</g>
<defs>
<clipPath id="clip0_107_491">
<rect width="16" height="16" fill="white"/>
</clipPath>
</defs>
</svg>
