<svg width="356" height="197" viewBox="0 0 356 197" fill="none" xmlns="http://www.w3.org/2000/svg">
<g clip-path="url(#clip0_97_988)">
<path d="M178.001 197.001C276.308 197.001 356.001 194.281 356.001 190.926C356.001 187.571 276.308 184.851 178.001 184.851C79.6936 184.851 0 187.571 0 190.926C0 194.281 79.6936 197.001 178.001 197.001Z" fill="#77AAE9"/>
<mask id="mask0_97_988" style="mask-type:luminance" maskUnits="userSpaceOnUse" x="0" y="184" width="357" height="14">
<path d="M178.001 197.001C276.308 197.001 356.001 194.281 356.001 190.926C356.001 187.571 276.308 184.851 178.001 184.851C79.6936 184.851 0 187.571 0 190.926C0 194.281 79.6936 197.001 178.001 197.001Z" fill="white"/>
</mask>
<g mask="url(#mask0_97_988)">
<path d="M182.77 194.202C274.206 194.202 348.328 191.039 348.328 187.137C348.328 183.234 274.206 180.071 182.77 180.071C91.3353 180.071 17.2124 183.234 17.2124 187.137C17.2124 191.039 91.3353 194.202 182.77 194.202Z" fill="#4992CE"/>
</g>
<path d="M312.522 188.023C320.612 188.023 325.89 179.801 325.903 170.321C326.001 89.477 309.189 6.11049 206.192 0.842581C85.7798 -5.31573 40.7087 20.4682 26.9373 138.516C23.8783 164.743 16.1028 188.484 64.0912 188.03L312.522 188.023Z" fill="#F2F8FE"/>
<path d="M118.882 177.075C118.882 177.075 120.067 162.692 106.484 160.195C92.9007 157.698 57.8172 134.065 44.1694 137.444C38.4235 138.867 43.741 155.108 40.2705 163.797C37.3463 171.112 22.3797 185.094 33.2394 188.028H120.508L118.882 177.075Z" fill="#BCDEF9"/>
<mask id="mask1_97_988" style="mask-type:luminance" maskUnits="userSpaceOnUse" x="29" y="137" width="92" height="52">
<path d="M118.882 177.075C118.882 177.075 120.067 162.692 106.484 160.195C92.9007 157.698 57.8172 134.065 44.1694 137.444C38.4235 138.867 43.741 155.108 40.2705 163.797C37.3463 171.112 22.3797 185.094 33.2394 188.028H120.508L118.882 177.075Z" fill="white"/>
</mask>
<g mask="url(#mask1_97_988)">
<path opacity="0.42" d="M63.8637 141.481C63.8637 141.481 53.7314 171.111 63.1965 181.233C72.6616 191.355 91.6521 195.312 91.6521 195.312H120.508V146.501L63.8637 141.481Z" fill="#77AAE9"/>
</g>
<path d="M111.775 154.017C111.775 154.017 132.9 151.877 142.291 148.428C151.681 144.979 137.595 187.905 137.595 187.905H102.951L111.775 154.017Z" fill="#89503D"/>
<path d="M114.318 161.956C114.318 174.475 101.783 179.971 87.666 179.971C73.5492 179.971 63.2035 174.473 63.2035 161.956C63.2035 149.44 75.9144 134.065 90.0299 134.065C104.145 134.065 114.318 149.441 114.318 161.956Z" fill="#9E5C46"/>
<mask id="mask2_97_988" style="mask-type:luminance" maskUnits="userSpaceOnUse" x="63" y="134" width="52" height="46">
<path d="M114.318 161.956C114.318 174.475 101.783 179.971 87.666 179.971C73.5492 179.971 63.2035 174.473 63.2035 161.956C63.2035 149.44 75.9144 134.065 90.0299 134.065C104.145 134.065 114.318 149.441 114.318 161.956Z" fill="white"/>
</mask>
<g mask="url(#mask2_97_988)">
<path d="M109.029 145.465C109.029 145.465 111.668 184.883 66.9479 172.853C66.9479 172.853 70.8132 188.652 91.4582 183.987C112.103 179.323 118.313 169.625 118.158 162.737C118.004 155.849 109.029 145.465 109.029 145.465Z" fill="#8A4F3D"/>
</g>
<path d="M94.1522 134.546C90.0418 133.473 85.8188 132.893 81.5719 132.817C80.437 132.798 79.2741 132.817 78.2137 133.221C78.0395 133.287 77.8513 133.383 77.7923 133.561C77.7038 133.853 78.0311 134.093 78.3176 134.196C78.7653 134.354 79.2376 134.431 79.7123 134.424L75.1953 134.846C73.9186 134.965 72.5029 135.157 71.684 136.148C71.479 136.397 71.3469 136.814 71.604 137.008C71.7233 137.078 71.8605 137.111 71.9986 137.103L74.9327 137.216C72.8164 137.604 70.8163 138.47 69.0843 139.748C68.8946 139.889 68.698 140.05 68.6489 140.281C68.5379 140.801 69.2107 141.109 69.7331 141.191C73.0001 141.706 76.3344 141.419 79.6294 141.129C82.298 140.896 84.982 140.659 87.5959 140.062C88.9161 139.759 90.2645 139.343 91.2827 138.454C92.301 137.565 92.9345 136.099 92.4892 134.818" fill="#9E5C46"/>
<path d="M76.3203 163.114C76.3203 163.114 79.8752 165.394 81.7628 161.668C81.7628 161.668 79.8752 163.726 76.3203 163.114Z" fill="#231F20"/>
<path d="M96.8741 160.188C96.8741 160.188 99.2772 163.308 102.951 160.751C102.951 160.748 100.088 161.797 96.8741 160.188Z" fill="#231F20"/>
<path d="M95.8671 158.248C97.5693 156.317 107.901 158.333 111.775 159.169C111.745 153.755 108.395 148.887 101.85 150.362C98.8025 151.049 96.0103 152.799 93.0229 153.738C92.7145 153.425 92.3596 153.162 91.9709 152.958C91.4175 152.635 90.8557 152.328 90.2855 152.035C90.0046 151.894 89.6521 151.754 89.3824 151.917C89.1492 152.057 89.0902 152.394 89.1759 152.655C89.2799 152.911 89.4392 153.141 89.6422 153.328C88.7287 152.472 87.7417 151.699 86.6927 151.017C86.5523 150.931 86.395 150.842 86.2489 150.907C86.1815 150.945 86.1283 151.003 86.0972 151.074C85.9343 151.401 86.0874 151.793 86.2784 152.104C86.6136 152.646 87.0615 153.11 87.5916 153.464C86.7359 152.931 85.8442 152.458 84.923 152.049C84.2095 151.731 83.4595 151.448 82.6758 151.444C82.5185 151.444 82.3317 151.474 82.2671 151.617C82.2493 151.682 82.2477 151.75 82.2624 151.815C82.2771 151.88 82.3076 151.941 82.3514 151.991C82.7853 152.657 83.5143 153.062 84.2306 153.398L84.4722 153.511C85.0639 153.785 85.6665 154.033 86.2798 154.255C83.4118 154.021 80.6168 153.488 77.826 153.578C75.8273 153.641 73.8301 154.024 71.809 155.065C67.8623 157.097 66.0505 160.601 66.5533 164.513C69.7977 162.517 79.1673 157.826 82.5901 160.111C86.1014 162.458 75.2262 170.901 71.7065 173.507C81.4286 181.815 100.727 178.476 108.488 168.368C99.3615 167.922 93.912 160.473 95.8671 158.248Z" fill="#ECC18F"/>
<path d="M95.4457 172.264C95.7845 172.779 95.9137 173.404 95.8067 174.011C95.7866 174.141 95.735 174.264 95.6564 174.37C95.5797 174.448 95.4865 174.508 95.3838 174.546C95.2811 174.583 95.1712 174.598 95.0623 174.588C94.7557 174.572 94.4625 174.457 94.2264 174.261C93.9902 174.064 93.8238 173.796 93.7518 173.498C93.6802 173.167 93.6816 172.738 93.3698 172.604C93.2703 172.567 93.1619 172.559 93.058 172.582C92.572 172.668 92.197 173.118 91.7055 173.156C91.072 173.204 90.5903 172.565 89.9667 172.452C89.7816 172.441 89.5984 172.409 89.4203 172.357C89.2503 172.284 89.1113 172.075 89.1984 171.915C89.2855 171.755 89.4793 171.746 89.645 171.743C90.5882 171.722 91.5279 171.621 92.4541 171.441C92.8754 171.358 93.2968 171.241 93.7181 171.15C93.8494 171.117 93.9862 171.114 94.1189 171.14C94.2517 171.166 94.3771 171.221 94.4864 171.3C94.8698 171.551 95.1966 171.879 95.4457 172.264Z" fill="white"/>
<path d="M92.4738 171.203C92.0524 171.272 91.6114 171.296 91.1844 171.344L90.5383 171.389C90.433 171.4 90.3276 171.406 90.2223 171.412C89.9217 170.599 89.8501 169.361 89.8543 168.327C91.5987 168.143 92.9204 167.045 92.8291 165.826C92.735 164.572 91.1858 163.668 89.3684 163.806C87.5509 163.944 86.1534 165.072 86.2489 166.322C86.3318 167.422 87.5341 168.252 89.058 168.347C89.058 169.348 89.1268 170.54 89.3965 171.441C88.6998 171.466 88.0004 171.466 87.2981 171.441C86.4273 171.419 85.5565 171.369 84.6632 171.301C85.4828 171.671 86.3496 171.926 87.2391 172.059C88.1284 172.203 89.0303 172.254 89.9302 172.211C90.381 172.199 90.8305 172.137 91.2771 172.084C91.499 172.043 91.7209 172.005 91.9428 171.96C92.0524 171.936 92.1634 171.919 92.2729 171.89L92.6002 171.801C93.4712 171.573 94.3058 171.223 95.0792 170.762C94.1859 170.922 93.3389 171.109 92.4738 171.203Z" fill="#352F31"/>
<path d="M77.6251 156.42C77.1672 156.464 76.7138 156.547 76.2698 156.669C75.8245 156.791 75.3273 157.062 75.1026 157.484C74.8568 157.944 75.038 158.351 75.5928 158.362C77.7965 158.403 79.9861 158.081 82.194 158.148C82.412 158.166 82.6315 158.153 82.8457 158.109C84.1758 157.764 82.4848 156.895 81.9735 156.777C80.6027 156.465 79.0746 156.279 77.6251 156.42Z" fill="#9E5C46"/>
<path d="M97.2336 154.068C96.7757 154.112 96.3223 154.195 95.8783 154.315C95.433 154.439 94.9358 154.709 94.7097 155.132C94.4653 155.591 94.6451 155.999 95.1999 156.009C97.405 156.05 99.5946 155.727 101.801 155.796C102.019 155.814 102.239 155.801 102.453 155.757C103.782 155.411 102.092 154.542 101.581 154.425C100.211 154.11 98.6817 153.923 97.2336 154.068Z" fill="#9E5C46"/>
<path d="M85.2405 134.065C84.5288 133.888 83.8149 133.724 83.0986 133.574C82.3876 133.418 81.6689 133.3 80.9454 133.22C80.7671 133.203 80.5887 133.19 80.4117 133.189C80.2456 133.182 80.0794 133.198 79.9173 133.235C79.865 133.243 79.816 133.266 79.7769 133.301C79.7769 133.31 79.7769 133.301 79.7769 133.312C79.7769 133.324 79.7769 133.312 79.7769 133.338L79.7881 133.386C79.8295 133.516 79.9156 133.627 80.0311 133.699C80.315 133.869 80.634 133.972 80.9637 133.999C81.3103 134.042 81.6601 134.053 82.0087 134.031C82.0766 134.026 82.1441 134.047 82.1961 134.092C82.2481 134.136 82.2805 134.199 82.2861 134.267C82.2916 134.335 82.27 134.403 82.2259 134.455C82.1818 134.507 82.1188 134.539 82.0508 134.545H82.0424C81.0845 134.639 80.1224 134.739 79.1673 134.868C78.2122 134.998 77.26 135.138 76.3274 135.338C75.8695 135.431 75.4192 135.558 74.9804 135.719C74.8803 135.76 74.7828 135.807 74.6883 135.86C74.6152 135.897 74.548 135.944 74.4888 136.001C74.4734 136.009 74.4608 136.082 74.4622 136.07C74.4622 136.07 74.4622 136.07 74.4622 136.078C74.4711 136.084 74.4791 136.091 74.486 136.099C74.5009 136.106 74.515 136.115 74.5282 136.124C74.7137 136.204 74.9112 136.251 75.1125 136.265C75.342 136.289 75.5727 136.3 75.8035 136.299C76.2752 136.297 76.7464 136.269 77.215 136.214C77.2909 136.206 77.3672 136.226 77.4289 136.271C77.4906 136.316 77.5332 136.383 77.5482 136.458C77.5632 136.533 77.5496 136.611 77.51 136.676C77.4704 136.741 77.4077 136.789 77.3344 136.811C76.326 137.109 75.3161 137.43 74.3217 137.776C73.324 138.103 72.3466 138.489 71.3947 138.932C71.1649 139.041 70.9438 139.168 70.7332 139.31C70.6385 139.373 70.5529 139.449 70.4789 139.536C70.4574 139.56 70.4415 139.59 70.4326 139.621C70.4326 139.634 70.4326 139.638 70.4494 139.666C70.4834 139.698 70.5217 139.724 70.5632 139.744C70.6124 139.769 70.6784 139.792 70.7346 139.815L70.9115 139.886C70.9719 139.907 71.0337 139.922 71.0941 139.941L71.2781 139.995L71.4677 140.035C71.5309 140.048 71.5927 140.062 71.6573 140.073L71.8498 140.098C72.9062 140.209 73.9739 140.127 75.0015 139.858C74.4995 140.037 73.9825 140.171 73.4565 140.259C72.9261 140.35 72.3871 140.381 71.8498 140.351L71.6461 140.337C71.5787 140.337 71.5056 140.319 71.4438 140.311L71.2416 140.281L71.0407 140.236C70.9747 140.221 70.9073 140.206 70.8399 140.188L70.6433 140.122C70.5773 140.098 70.5155 140.083 70.4438 140.05C70.3641 140.017 70.2908 139.969 70.2275 139.91C70.1852 139.87 70.1521 139.821 70.1302 139.767C70.1084 139.713 70.0985 139.655 70.1011 139.597C70.1086 139.496 70.1446 139.398 70.2051 139.316C70.2958 139.194 70.4036 139.086 70.5253 138.995C70.7478 138.829 70.9825 138.68 71.2276 138.549C71.7037 138.288 72.1925 138.068 72.6826 137.856C73.1728 137.644 73.6658 137.448 74.1686 137.26C75.1672 136.888 76.1715 136.544 77.1898 136.22L77.3162 136.816C76.8226 136.877 76.326 136.911 75.8288 136.916C75.5751 136.919 75.3215 136.908 75.0689 136.884C74.7866 136.862 74.5104 136.791 74.2529 136.673L74.1391 136.603C74.1012 136.573 74.0633 136.538 74.0268 136.504C73.9883 136.461 73.9544 136.414 73.9256 136.364C73.8958 136.309 73.8744 136.251 73.8624 136.19C73.8491 136.133 73.8453 136.073 73.8512 136.015C73.8531 135.962 73.8626 135.91 73.8793 135.86C73.9046 135.757 73.9526 135.661 74.0197 135.579C74.1275 135.459 74.256 135.36 74.399 135.286C74.5179 135.222 74.6408 135.166 74.7669 135.119C75.2383 134.947 75.7225 134.813 76.215 134.718C77.1799 134.518 78.1462 134.382 79.1139 134.275C80.0817 134.168 81.0494 134.075 82.0241 134.02L82.0578 134.535C81.671 134.552 81.2835 134.532 80.9005 134.476C80.4979 134.426 80.1128 134.282 79.7769 134.054C79.5883 133.917 79.454 133.718 79.3977 133.491C79.3818 133.426 79.3752 133.359 79.378 133.291C79.385 133.203 79.4205 133.119 79.4791 133.052C79.5718 132.957 79.6923 132.893 79.8232 132.871C80.0206 132.836 80.2217 132.826 80.4216 132.841C80.6126 132.854 80.798 132.875 80.9834 132.903C81.7137 133.025 82.4364 133.189 83.1477 133.394C83.8519 133.596 84.5494 133.819 85.2405 134.065Z" fill="#ECC18F"/>
<path d="M124.236 187.905C124.236 187.905 127.887 152.11 131.022 148.237C134.157 144.365 183.383 135.925 202.389 134.071C281.154 126.389 344.372 185.949 330.241 187.715C325.71 188.277 300.361 187.91 300.361 187.91L124.236 187.905Z" fill="#BCDEF9"/>
<mask id="mask3_97_988" style="mask-type:luminance" maskUnits="userSpaceOnUse" x="124" y="133" width="209" height="56">
<path d="M124.236 187.905C124.236 187.905 127.887 152.11 131.022 148.237C134.157 144.365 183.383 135.925 202.389 134.071C281.154 126.389 344.372 185.949 330.241 187.715C325.71 188.277 300.361 187.91 300.361 187.91L124.236 187.905Z" fill="white"/>
</mask>
<g mask="url(#mask3_97_988)">
<path d="M167.847 153.723C168.478 153.713 169.081 153.461 169.533 153.02C169.954 152.598 170.262 151.921 170.235 151.323C170.207 150.703 170.003 150.057 169.533 149.635C169.311 149.412 169.047 149.234 168.757 149.113C168.466 148.992 168.154 148.93 167.84 148.93C167.525 148.93 167.213 148.992 166.923 149.113C166.632 149.234 166.368 149.412 166.147 149.635C165.702 150.085 165.45 150.69 165.444 151.323C165.471 151.943 165.675 152.589 166.147 153.02C166.601 153.461 167.207 153.713 167.84 153.723H167.847Z" fill="white"/>
<path d="M180.529 170.205C181.162 170.196 181.768 169.944 182.221 169.501C182.643 169.079 182.95 168.403 182.924 167.805C182.895 167.185 182.692 166.539 182.221 166.11C181.999 165.886 181.736 165.709 181.445 165.588C181.154 165.467 180.843 165.405 180.528 165.405C180.213 165.405 179.902 165.467 179.611 165.588C179.321 165.709 179.057 165.886 178.835 166.11C178.389 166.561 178.137 167.17 178.133 167.805C178.159 168.425 178.363 169.071 178.835 169.501C179.29 169.943 179.895 170.194 180.529 170.205Z" fill="white"/>
<path d="M196.98 143.768C197.614 143.759 198.22 143.508 198.674 143.065C199.095 142.643 199.401 141.966 199.376 141.368C199.348 140.748 199.144 140.102 198.674 139.68C198.452 139.457 198.188 139.279 197.897 139.158C197.607 139.037 197.295 138.974 196.98 138.974C196.665 138.974 196.353 139.037 196.063 139.158C195.772 139.279 195.508 139.457 195.286 139.68C194.865 140.095 194.559 140.779 194.584 141.368C194.612 141.989 194.816 142.634 195.286 143.065C195.741 143.506 196.347 143.758 196.98 143.768Z" fill="white"/>
<path d="M187.04 155.435C187.674 155.427 188.28 155.175 188.734 154.731C189.155 154.309 189.462 153.633 189.436 153.035C189.408 152.415 189.206 151.769 188.734 151.347C188.512 151.124 188.248 150.946 187.958 150.825C187.667 150.704 187.356 150.642 187.041 150.642C186.726 150.642 186.415 150.704 186.124 150.825C185.833 150.946 185.57 151.124 185.348 151.347C184.926 151.769 184.619 152.446 184.646 153.035C184.674 153.655 184.877 154.301 185.348 154.731C185.8 155.172 186.403 155.423 187.033 155.435H187.04Z" fill="white"/>
<path d="M179.158 139.993C179.791 139.984 180.397 139.732 180.851 139.289C181.272 138.867 181.579 138.191 181.553 137.593C181.525 136.973 181.321 136.327 180.851 135.896C180.401 135.447 179.792 135.195 179.157 135.195C178.522 135.195 177.913 135.447 177.464 135.896C177.018 136.348 176.766 136.957 176.762 137.593C176.789 138.213 176.992 138.859 177.464 139.289C177.919 139.731 178.525 139.982 179.158 139.993Z" fill="white"/>
<path d="M142.827 154.753C143.461 154.744 144.067 154.492 144.52 154.049C144.941 153.627 145.249 152.951 145.222 152.353C145.194 151.732 144.99 151.087 144.52 150.665C144.298 150.441 144.034 150.264 143.743 150.143C143.453 150.022 143.141 149.96 142.827 149.96C142.512 149.96 142.2 150.022 141.91 150.143C141.619 150.264 141.355 150.441 141.133 150.665C140.689 151.114 140.437 151.72 140.431 152.353C140.459 152.973 140.661 153.619 141.133 154.049C141.588 154.491 142.194 154.742 142.827 154.753Z" fill="white"/>
<path d="M154.823 175.006C155.454 174.996 156.058 174.744 156.509 174.302C156.93 173.88 157.238 173.204 157.211 172.607C157.183 171.987 156.979 171.341 156.509 170.911C156.059 170.461 155.451 170.209 154.816 170.209C154.181 170.209 153.572 170.461 153.122 170.911C152.676 171.363 152.424 171.972 152.42 172.607C152.447 173.228 152.651 173.873 153.122 174.302C153.577 174.744 154.183 174.996 154.816 175.006H154.823Z" fill="white"/>
<path d="M153.795 159.902C154.426 159.892 155.029 159.64 155.481 159.199C155.902 158.777 156.21 158.1 156.183 157.511C156.155 156.891 155.951 156.245 155.481 155.815C155.031 155.365 154.422 155.113 153.787 155.113C153.153 155.113 152.544 155.365 152.094 155.815C151.648 156.267 151.396 156.875 151.392 157.511C151.419 158.131 151.622 158.777 152.094 159.199C152.549 159.64 153.155 159.892 153.788 159.902H153.795Z" fill="white"/>
<path d="M134.258 170.205C134.892 170.196 135.498 169.945 135.952 169.501C136.367 169.079 136.68 168.403 136.654 167.805C136.626 167.185 136.424 166.539 135.952 166.11C135.73 165.886 135.466 165.709 135.176 165.588C134.885 165.467 134.574 165.405 134.259 165.405C133.944 165.405 133.633 165.467 133.342 165.588C133.052 165.709 132.788 165.886 132.566 166.11C132.145 166.532 131.837 167.208 131.864 167.805C131.892 168.425 132.095 169.071 132.566 169.501C133.018 169.941 133.621 170.193 134.251 170.205H134.258Z" fill="white"/>
<path d="M137.685 183.586C138.319 183.578 138.926 183.326 139.379 182.883C139.825 182.431 140.077 181.822 140.081 181.186C140.055 180.566 139.851 179.92 139.379 179.498C139.157 179.275 138.893 179.097 138.603 178.976C138.312 178.855 138.001 178.793 137.686 178.793C137.371 178.793 137.06 178.855 136.769 178.976C136.479 179.097 136.215 179.275 135.993 179.498C135.572 179.92 135.264 180.597 135.291 181.186C135.319 181.807 135.522 182.452 135.993 182.883C136.445 183.323 137.048 183.574 137.678 183.586H137.685Z" fill="white"/>
<path d="M171.648 182.933C172.282 182.925 172.888 182.673 173.342 182.23C173.756 181.808 174.069 181.131 174.044 180.534C174.016 179.913 173.812 179.268 173.342 178.837C172.892 178.388 172.283 178.135 171.648 178.135C171.013 178.135 170.404 178.388 169.954 178.837C169.533 179.259 169.227 179.936 169.252 180.534C169.28 181.154 169.484 181.8 169.954 182.23C170.409 182.672 171.015 182.923 171.648 182.933Z" fill="white"/>
<path d="M167.442 166.082C168.072 166.071 168.675 165.82 169.127 165.378C169.548 164.956 169.856 164.28 169.829 163.69C169.801 163.07 169.597 162.424 169.127 161.994C168.678 161.545 168.069 161.292 167.434 161.292C166.799 161.292 166.19 161.545 165.741 161.994C165.326 162.416 165.013 163.093 165.038 163.69C165.067 164.311 165.269 164.956 165.741 165.378C166.196 165.82 166.801 166.071 167.435 166.082H167.442Z" fill="white"/>
<path d="M206.704 170.767C207.337 170.759 207.944 170.507 208.397 170.064C208.819 169.642 209.125 168.965 209.1 168.368C209.072 167.749 208.868 167.102 208.397 166.673C207.948 166.223 207.339 165.971 206.704 165.971C206.068 165.971 205.459 166.223 205.01 166.673C204.588 167.095 204.282 167.771 204.307 168.368C204.336 168.988 204.539 169.634 205.01 170.064C205.465 170.506 206.07 170.757 206.704 170.767Z" fill="white"/>
<path d="M215.584 149.697C216.218 149.688 216.824 149.437 217.278 148.994C217.7 148.572 218.006 147.895 217.98 147.297C217.952 146.677 217.749 146.031 217.278 145.601C216.829 145.151 216.219 144.899 215.584 144.899C214.949 144.899 214.34 145.151 213.89 145.601C213.476 146.023 213.163 146.699 213.188 147.297C213.216 147.918 213.42 148.563 213.89 148.994C214.345 149.435 214.951 149.687 215.584 149.697Z" fill="white"/>
<path d="M198.758 157.188C199.389 157.177 199.992 156.926 200.444 156.484C200.865 156.062 201.173 155.386 201.146 154.796C201.118 154.176 200.914 153.53 200.444 153.1C199.994 152.65 199.385 152.398 198.75 152.398C198.116 152.398 197.507 152.65 197.057 153.1C196.611 153.552 196.359 154.161 196.355 154.796C196.382 155.417 196.585 156.062 197.057 156.484C197.512 156.926 198.118 157.177 198.751 157.188H198.758Z" fill="white"/>
<path d="M195.953 183.402C196.587 183.394 197.194 183.142 197.647 182.699C198.069 182.277 198.375 181.6 198.349 181.011C198.321 180.39 198.118 179.745 197.647 179.314C197.198 178.865 196.588 178.612 195.953 178.612C195.318 178.612 194.709 178.865 194.259 179.314C193.845 179.736 193.532 180.413 193.557 181.011C193.585 181.631 193.789 182.277 194.259 182.699C194.714 183.141 195.32 183.392 195.953 183.402Z" fill="white"/>
<path d="M230.541 189.487C231.175 189.479 231.781 189.227 232.235 188.784C232.681 188.332 232.933 187.723 232.937 187.087C232.911 186.467 232.707 185.821 232.235 185.391C231.786 184.941 231.177 184.689 230.542 184.689C229.907 184.689 229.298 184.941 228.849 185.391C228.427 185.813 228.12 186.489 228.146 187.087C228.174 187.708 228.378 188.353 228.849 188.784C229.303 189.225 229.908 189.477 230.541 189.487Z" fill="white"/>
<path d="M238.488 164.208C239.119 164.198 239.722 163.946 240.173 163.505C240.595 163.083 240.902 162.406 240.876 161.808C240.849 161.211 240.644 160.542 240.173 160.12C239.951 159.897 239.688 159.72 239.397 159.598C239.106 159.477 238.795 159.415 238.48 159.415C238.165 159.415 237.854 159.477 237.563 159.598C237.273 159.72 237.009 159.897 236.787 160.12C236.366 160.542 236.059 161.219 236.085 161.808C236.111 162.429 236.315 163.074 236.787 163.505C237.242 163.946 237.847 164.198 238.481 164.208H238.488Z" fill="white"/>
<path d="M218.389 178.72C219.02 178.71 219.623 178.459 220.075 178.017C220.496 177.595 220.804 176.919 220.777 176.321C220.749 175.7 220.545 175.055 220.075 174.624C219.625 174.175 219.016 173.923 218.381 173.923C217.747 173.923 217.138 174.175 216.688 174.624C216.242 175.076 215.99 175.685 215.986 176.321C216.014 176.941 216.216 177.587 216.688 178.017C217.143 178.459 217.749 178.71 218.382 178.72H218.389Z" fill="white"/>
<path d="M222.128 163.273C222.762 163.265 223.368 163.013 223.822 162.569C224.243 162.147 224.549 161.472 224.524 160.881C224.496 160.261 224.292 159.615 223.822 159.185C223.372 158.736 222.763 158.483 222.128 158.483C221.493 158.483 220.884 158.736 220.434 159.185C220.013 159.607 219.707 160.284 219.732 160.881C219.76 161.502 219.964 162.147 220.434 162.569C220.889 163.011 221.495 163.263 222.128 163.273Z" fill="white"/>
<path d="M237.552 137.058C238.186 137.05 238.793 136.799 239.246 136.355C239.661 135.933 239.974 135.256 239.949 134.66C239.921 134.04 239.717 133.394 239.246 132.964C238.797 132.514 238.188 132.262 237.552 132.262C236.917 132.262 236.308 132.514 235.859 132.964C235.437 133.386 235.131 134.062 235.156 134.66C235.184 135.28 235.388 135.926 235.859 136.355C236.313 136.797 236.919 137.049 237.552 137.058Z" fill="white"/>
<path d="M216.052 139.399C216.683 139.389 217.286 139.137 217.737 138.696C218.159 138.274 218.466 137.597 218.44 137.008C218.412 136.387 218.208 135.742 217.737 135.311C217.288 134.862 216.679 134.609 216.044 134.609C215.409 134.609 214.8 134.862 214.351 135.311C213.93 135.733 213.624 136.41 213.649 137.008C213.677 137.628 213.879 138.274 214.351 138.696C214.806 139.138 215.412 139.389 216.045 139.399H216.052Z" fill="white"/>
<path d="M271.213 166.547C271.844 166.537 272.447 166.286 272.899 165.844C273.32 165.422 273.628 164.745 273.601 164.148C273.573 163.527 273.369 162.882 272.899 162.46C272.677 162.236 272.413 162.059 272.122 161.938C271.832 161.817 271.52 161.754 271.205 161.754C270.891 161.754 270.579 161.817 270.289 161.938C269.998 162.059 269.734 162.236 269.512 162.46C269.091 162.882 268.785 163.558 268.81 164.148C268.838 164.768 269.04 165.414 269.512 165.844C269.967 166.286 270.573 166.537 271.206 166.547H271.213Z" fill="white"/>
<path d="M260.924 148.76C261.555 148.75 262.158 148.498 262.609 148.057C263.031 147.635 263.338 146.958 263.311 146.36C263.283 145.74 263.08 145.094 262.609 144.672C262.387 144.449 262.123 144.272 261.833 144.151C261.542 144.03 261.231 143.967 260.916 143.967C260.601 143.967 260.29 144.03 259.999 144.151C259.709 144.272 259.445 144.449 259.223 144.672C258.802 145.094 258.495 145.771 258.521 146.36C258.547 146.981 258.751 147.626 259.223 148.057C259.678 148.499 260.283 148.75 260.917 148.76H260.924Z" fill="white"/>
<path d="M237.552 150.166C238.186 150.158 238.793 149.906 239.246 149.462C239.661 149.04 239.974 148.365 239.949 147.774C239.921 147.154 239.717 146.508 239.246 146.078C238.797 145.628 238.188 145.376 237.552 145.376C236.917 145.376 236.308 145.628 235.859 146.078C235.437 146.5 235.131 147.176 235.156 147.774C235.184 148.395 235.388 149.04 235.859 149.462C236.313 149.904 236.919 150.156 237.552 150.166Z" fill="white"/>
<path d="M253.912 159.528C254.543 159.518 255.146 159.266 255.598 158.825C256.019 158.403 256.327 157.726 256.3 157.137C256.272 156.517 256.068 155.871 255.598 155.44C255.148 154.991 254.539 154.739 253.905 154.739C253.27 154.739 252.661 154.991 252.211 155.44C251.765 155.893 251.513 156.501 251.509 157.137C251.536 157.757 251.739 158.403 252.211 158.825C252.666 159.266 253.272 159.518 253.905 159.528H253.912Z" fill="white"/>
<path d="M256.249 180.124C256.88 180.114 257.483 179.863 257.935 179.421C258.356 178.999 258.664 178.322 258.637 177.725C258.609 177.104 258.405 176.459 257.935 176.037C257.713 175.813 257.449 175.636 257.159 175.515C256.868 175.394 256.556 175.331 256.242 175.331C255.927 175.331 255.615 175.394 255.325 175.515C255.034 175.636 254.77 175.813 254.549 176.037C254.104 176.486 253.852 177.092 253.846 177.725C253.873 178.345 254.077 178.991 254.549 179.421C255.003 179.863 255.609 180.114 256.242 180.124H256.249Z" fill="white"/>
<path d="M240.825 179.189C241.456 179.179 242.059 178.927 242.51 178.486C242.932 178.071 243.239 177.387 243.213 176.798C243.185 176.177 242.981 175.532 242.51 175.101C242.061 174.652 241.452 174.399 240.817 174.399C240.182 174.399 239.573 174.652 239.124 175.101C238.678 175.553 238.426 176.162 238.422 176.798C238.449 177.418 238.652 178.064 239.124 178.486C239.579 178.928 240.185 179.179 240.818 179.189H240.825Z" fill="white"/>
<path d="M275.88 185.274C276.511 185.264 277.114 185.012 277.566 184.571C277.987 184.149 278.295 183.472 278.268 182.874C278.24 182.254 278.036 181.608 277.566 181.178C277.117 180.729 276.508 180.476 275.873 180.476C275.238 180.476 274.629 180.729 274.18 181.178C273.733 181.63 273.481 182.239 273.477 182.874C273.505 183.495 273.708 184.14 274.18 184.571C274.634 185.012 275.24 185.264 275.873 185.274H275.88Z" fill="white"/>
<path d="M286.163 172.174C286.797 172.166 287.403 171.914 287.857 171.471C288.271 171.049 288.584 170.373 288.559 169.783C288.531 169.162 288.327 168.517 287.857 168.086C287.407 167.637 286.798 167.384 286.163 167.384C285.528 167.384 284.919 167.637 284.469 168.086C284.048 168.508 283.742 169.185 283.767 169.783C283.795 170.403 283.999 171.049 284.469 171.471C284.924 171.913 285.529 172.164 286.163 172.174Z" fill="white"/>
<path d="M277.75 156.719C278.384 156.711 278.99 156.459 279.444 156.016C279.865 155.594 280.171 154.919 280.146 154.321C280.118 153.7 279.914 153.055 279.444 152.624C278.994 152.175 278.385 151.922 277.75 151.922C277.115 151.922 276.506 152.175 276.056 152.624C275.635 153.046 275.328 153.723 275.354 154.321C275.382 154.941 275.585 155.587 276.056 156.016C276.511 156.458 277.116 156.709 277.75 156.719Z" fill="white"/>
<path d="M310.468 175.443C311.102 175.434 311.708 175.183 312.162 174.74C312.576 174.318 312.89 173.641 312.864 173.043C312.836 172.423 312.633 171.777 312.162 171.355C311.94 171.132 311.676 170.954 311.386 170.833C311.095 170.712 310.783 170.649 310.468 170.649C310.153 170.649 309.842 170.712 309.551 170.833C309.26 170.954 308.996 171.132 308.774 171.355C308.36 171.77 308.047 172.454 308.072 173.043C308.1 173.664 308.304 174.309 308.774 174.74C309.229 175.181 309.835 175.433 310.468 175.443Z" fill="white"/>
<path d="M296.445 161.869C297.079 161.86 297.686 161.609 298.139 161.165C298.561 160.743 298.867 160.067 298.842 159.477C298.815 158.857 298.611 158.211 298.139 157.781C297.69 157.332 297.081 157.079 296.446 157.079C295.811 157.079 295.202 157.332 294.753 157.781C294.332 158.203 294.024 158.88 294.051 159.477C294.077 160.075 294.283 160.743 294.753 161.165C295.207 161.607 295.813 161.859 296.445 161.869Z" fill="white"/>
<path d="M295.979 185.742C296.613 185.735 297.219 185.483 297.672 185.039C298.093 184.617 298.401 183.941 298.374 183.351C298.346 182.731 298.142 182.085 297.672 181.655C297.222 181.205 296.613 180.953 295.979 180.953C295.344 180.953 294.735 181.205 294.285 181.655C293.839 182.107 293.587 182.716 293.583 183.351C293.61 183.971 293.813 184.617 294.285 185.039C294.74 185.481 295.346 185.733 295.979 185.742Z" fill="white"/>
<path d="M314.207 185.742C314.841 185.735 315.448 185.483 315.901 185.039C316.345 184.589 316.597 183.984 316.603 183.351C316.577 182.731 316.373 182.085 315.901 181.655C315.452 181.205 314.843 180.953 314.208 180.953C313.573 180.953 312.964 181.205 312.515 181.655C312.093 182.077 311.786 182.753 311.812 183.351C311.84 183.971 312.044 184.617 312.515 185.039C312.969 185.481 313.574 185.733 314.207 185.742Z" fill="white"/>
<path d="M153.887 186.678C154.52 186.669 155.126 186.418 155.58 185.975C156.002 185.553 156.308 184.876 156.283 184.278C156.255 183.658 156.051 183.012 155.58 182.59C155.358 182.367 155.095 182.189 154.804 182.068C154.513 181.947 154.201 181.884 153.887 181.884C153.572 181.884 153.26 181.947 152.969 182.068C152.678 182.189 152.415 182.367 152.193 182.59C151.778 183.012 151.465 183.689 151.49 184.278C151.518 184.899 151.722 185.544 152.193 185.975C152.647 186.416 153.253 186.668 153.887 186.678Z" fill="white"/>
<path d="M155.288 148.293C155.922 148.285 156.528 148.033 156.982 147.59C157.426 147.14 157.678 146.535 157.684 145.902C157.658 145.282 157.454 144.636 156.982 144.206C156.533 143.756 155.924 143.504 155.289 143.504C154.654 143.504 154.045 143.756 153.596 144.206C153.174 144.627 152.867 145.304 152.894 145.902C152.922 146.522 153.125 147.168 153.596 147.59C154.05 148.031 154.655 148.283 155.288 148.293Z" fill="white"/>
<path opacity="0.42" d="M141.046 144.585C141.046 144.585 152.322 176.283 184.889 178.204C217.455 180.126 336.031 182.745 336.031 182.745V190.92H115.997L126.547 146.265L141.048 144.585" fill="#77AAE9"/>
</g>
<path d="M96.3966 185.586C96.1349 184.819 95.6489 184.148 95.0017 183.661C94.3545 183.174 93.576 182.893 92.7673 182.855C88.8346 182.632 80.2207 182.52 74.8034 185.257C67.6109 188.892 60.7793 195.014 64.0153 194.119C67.2513 193.224 76.4215 186.654 80.5578 187.276C84.6941 187.897 95.3376 188.35 96.3081 187.084C96.6115 186.696 96.582 186.15 96.3966 185.586Z" fill="#ECC18F"/>
<path d="M96.2898 186.539C96.2898 186.539 79.326 186.511 77.6954 187.924C76.0647 189.338 66.7204 194.835 67.9072 195.28C69.0941 195.724 78.5816 191.439 80.5128 190.909C82.4441 190.379 97.2716 192.511 97.7154 190.926C98.1592 189.341 96.2898 186.539 96.2898 186.539Z" fill="#ECC18F"/>
<path d="M80.5578 187.27C80.5578 187.27 88.8445 186.236 91.6535 186.587C91.6521 186.587 86.0073 184.799 80.5578 187.27Z" fill="#E0A870"/>
<path d="M94.1521 182.564L126.547 168.02L124.237 187.905C124.237 187.905 99.8082 192.33 95.0777 192.113C90.3473 191.897 94.1521 182.564 94.1521 182.564Z" fill="#9E5C45"/>
<mask id="mask4_97_988" style="mask-type:luminance" maskUnits="userSpaceOnUse" x="92" y="168" width="35" height="25">
<path d="M94.1521 182.564L126.547 168.02L124.237 187.905C124.237 187.905 99.8082 192.33 95.0777 192.113C90.3473 191.897 94.1521 182.564 94.1521 182.564Z" fill="white"/>
</mask>
<g mask="url(#mask4_97_988)">
<path d="M89.8684 188.03C89.8684 188.03 116.019 186.02 131.173 176.274V190.926L89.124 194.204L89.8684 188.03Z" fill="#8A4F3D"/>
</g>
<path d="M109.029 146.496C109.029 146.496 94.1521 142.512 85.2404 135.102C76.2894 127.649 107.141 114.252 117.081 115.641C127.021 117.029 131.792 146.667 120.508 165.186L114.318 137.627C114.318 137.627 115.078 144.245 109.029 146.496Z" fill="#BCDEF9"/>
<mask id="mask5_97_988" style="mask-type:luminance" maskUnits="userSpaceOnUse" x="83" y="115" width="45" height="51">
<path d="M109.029 146.496C109.029 146.496 94.1521 142.512 85.2404 135.102C76.2894 127.649 107.141 114.252 117.081 115.641C127.021 117.029 131.792 146.667 120.508 165.186L114.318 137.627C114.318 137.627 115.078 144.245 109.029 146.496Z" fill="white"/>
</mask>
<g mask="url(#mask5_97_988)">
<path opacity="0.42" d="M99.9135 143.35C99.9135 143.35 113.464 135.32 114.318 129.965C115.172 124.609 121.922 153.28 120.196 163.804L114.318 145.94L107.946 148.224L99.9135 143.343" fill="#77AAE9"/>
<path opacity="0.54" d="M86.9694 126.725C86.9694 126.725 103.964 139.385 113.575 144.815L107.946 148.231C107.946 148.231 84.2278 139.54 82.0241 134.031C79.8204 128.523 86.9764 126.725 86.9764 126.725" fill="white"/>
</g>
<path d="M120.285 171.118C122.303 171.118 123.939 169.479 123.939 167.457C123.939 165.436 122.303 163.797 120.285 163.797C118.266 163.797 116.63 165.436 116.63 167.457C116.63 169.479 118.266 171.118 120.285 171.118Z" fill="white"/>
<path d="M174.863 98.6413C174.858 99.7508 174.525 100.834 173.905 101.754C173.285 102.673 172.407 103.388 171.382 103.808C170.357 104.228 169.23 104.334 168.144 104.113C167.059 103.892 166.063 103.353 165.283 102.565C164.504 101.777 163.975 100.775 163.763 99.6855C163.552 98.5964 163.668 97.469 164.097 96.4459C164.525 95.4227 165.247 94.5499 166.171 93.9376C167.095 93.3254 168.179 93.0013 169.287 93.0063C170.772 93.0134 172.194 93.6109 173.24 94.6676C174.286 95.7243 174.869 97.1536 174.863 98.6413Z" fill="#757575"/>
<path d="M158.066 91.4323C164.218 84.9617 174.218 84.7676 180.525 91.1355C183.383 94.0219 187.86 89.5881 184.999 86.6947C176.343 77.958 162.134 78.0086 153.632 86.9507C150.837 89.8849 155.263 94.3862 158.066 91.4323Z" fill="#757575"/>
<path d="M139.048 65.3192C147.565 57.9456 157.728 53.3036 169.119 53.2755C180.402 53.2474 191.532 57.2591 199.796 65.0337C202.746 67.8104 207.24 63.3795 204.272 60.5929C194.804 51.6874 182.106 46.9329 169.148 46.9653C156.045 46.999 144.402 52.3626 134.614 60.8376C131.541 63.4976 135.991 67.9665 139.048 65.3192Z" fill="#757575"/>
<path d="M146.549 79.7894C152.26 73.6002 160.262 69.7361 168.72 69.5434C177.407 69.3437 185.794 72.9278 191.834 79.1424C194.667 82.057 199.137 77.6148 196.31 74.7016C189.162 67.3476 179.034 62.9983 168.749 63.2332C158.689 63.4625 148.945 67.9187 142.115 75.3079C139.367 78.2843 143.789 82.7786 146.549 79.7894Z" fill="#757575"/>
<path d="M222.175 53.4582C223.829 44.0954 217.591 35.1629 208.242 33.507C198.893 31.851 189.974 38.0986 188.321 47.4614C186.668 56.8242 192.906 65.7567 202.254 67.4127C211.603 69.0687 220.522 62.821 222.175 53.4582Z" fill="#EA5E1F"/>
<path d="M212.335 45.655L209.899 43.2151L198.983 54.1473L201.419 56.5872L212.335 45.655Z" fill="white"/>
<path d="M201.419 43.2145L198.983 45.6544L209.898 56.5866L212.335 54.1468L201.419 43.2145Z" fill="white"/>
</g>
<defs>
<clipPath id="clip0_97_988">
<rect width="356" height="197" fill="white"/>
</clipPath>
</defs>
</svg>
