<svg width="62" height="62" viewBox="0 0 62 62" fill="none" xmlns="http://www.w3.org/2000/svg">
<circle cx="31" cy="31" r="31" fill="white"/>
<path d="M23.4839 31.978H26.7724V45.5161C26.7724 45.7834 26.9889 46 27.2562 46H32.832C33.0993 46 33.3158 45.7834 33.3158 45.5161V32.0418H37.0962C37.342 32.0418 37.5488 31.8573 37.5769 31.6132L38.1511 26.6291C38.1668 26.492 38.1234 26.3546 38.0316 26.2518C37.9398 26.1488 37.8084 26.0899 37.6705 26.0899H33.316V22.9656C33.316 22.0238 33.8231 21.5462 34.8234 21.5462C34.9659 21.5462 37.6705 21.5462 37.6705 21.5462C37.9378 21.5462 38.1544 21.3295 38.1544 21.0624V16.4875C38.1544 16.2202 37.9378 16.0036 37.6705 16.0036H33.7468C33.7191 16.0022 33.6576 16 33.5671 16C32.8863 16 30.5198 16.1336 28.6505 17.8533C26.5794 19.759 26.8673 22.0407 26.9361 22.4364V26.0898H23.4839C23.2166 26.0898 23 26.3064 23 26.5736V31.494C23 31.7613 23.2166 31.978 23.4839 31.978Z" fill="#276FE8"/>
</svg>
