<svg width="20" height="20" viewBox="0 0 20 20" fill="none" xmlns="http://www.w3.org/2000/svg">
<g clip-path="url(#clip0_107_486)">
<path d="M19.707 9.99024L16.8749 18.7512C16.6926 19.0894 16.4322 19.3789 16.0937 19.6195C15.7551 19.8602 15.3775 19.987 14.9609 20C14.5963 19.987 14.2317 19.8537 13.8671 19.6C13.5025 19.3463 13.2551 19.0634 13.1249 18.7512L10.2929 9.99024C9.99342 9.23577 9.93157 8.63089 10.1073 8.17561C10.2831 7.72032 10.6054 7.49268 11.0741 7.49268H18.9257C19.3945 7.49268 19.7167 7.72032 19.8925 8.17561C20.0683 8.63089 20.0064 9.23577 19.707 9.99024ZM11.2499 3.74634C11.2499 2.70569 11.6178 1.82114 12.3534 1.09268C13.0891 0.364228 13.9745 0 15.0097 0C16.0448 0 16.927 0.364228 17.6562 1.09268C18.3853 1.82114 18.7499 2.70569 18.7499 3.74634C18.7499 4.78699 18.3853 5.67155 17.6562 6.4C16.927 7.12846 16.0448 7.49268 15.0097 7.49268C13.9745 7.49268 13.0891 7.12846 12.3534 6.4C11.6178 5.67155 11.2499 4.78699 11.2499 3.74634ZM8.92571 20H1.05462C0.598886 20 0.283131 19.7724 0.10735 19.3171C-0.0684316 18.8618 -0.0130931 18.2569 0.273365 17.5024L3.71087 7.25854C2.9817 6.98537 2.386 6.53008 1.92376 5.89268C1.46152 5.25528 1.2304 4.53984 1.2304 3.74634C1.2304 2.70569 1.59824 1.82114 2.33391 1.09268C3.06959 0.364228 3.95501 0 4.99016 0C6.02532 0 6.91073 0.364228 7.64641 1.09268C8.38209 1.82114 8.74993 2.70569 8.74993 3.74634C8.74993 4.55285 8.5123 5.27805 8.03704 5.92195C7.56178 6.56585 6.95305 7.01789 6.21087 7.27805L9.70696 17.5024C10.0064 18.2569 10.065 18.8618 9.88274 19.3171C9.70045 19.7724 9.38144 20 8.92571 20Z" fill="#009FE3"/>
</g>
<defs>
<clipPath id="clip0_107_486">
<rect width="20" height="20" fill="white"/>
</clipPath>
</defs>
</svg>
