<svg width="62" height="62" viewBox="0 0 62 62" fill="none" xmlns="http://www.w3.org/2000/svg">
<circle cx="31" cy="31" r="31" fill="white"/>
<g clip-path="url(#clip0_100_69)">
<path d="M44.6663 31.262C44.6663 30.1149 44.5732 29.2778 44.3718 28.4097H31.2725V33.5873H38.9615C38.8065 34.874 37.9694 36.8118 36.1091 38.1139L36.083 38.2873L40.2248 41.4958L40.5117 41.5245C43.147 39.0906 44.6663 35.5096 44.6663 31.262Z" fill="#4285F4"/>
<path d="M31.2726 44.9037C35.0395 44.9037 38.2019 43.6635 40.5118 41.5243L36.1092 38.1137C34.9311 38.9353 33.3498 39.5089 31.2726 39.5089C27.5831 39.5089 24.4517 37.0751 23.3354 33.7112L23.1718 33.7251L18.8652 37.058L18.8088 37.2146C21.1031 41.7722 25.8158 44.9037 31.2726 44.9037Z" fill="#34A853"/>
<path d="M23.3353 33.7113C23.0408 32.8432 22.8703 31.913 22.8703 30.9519C22.8703 29.9907 23.0408 29.0606 23.3198 28.1925L23.312 28.0076L18.9514 24.6211L18.8087 24.689C17.8631 26.5802 17.3206 28.7041 17.3206 30.9519C17.3206 33.1997 17.8631 35.3234 18.8087 37.2147L23.3353 33.7113Z" fill="#FBBC05"/>
<path d="M31.2726 22.3947C33.8924 22.3947 35.6596 23.5264 36.6673 24.472L40.6048 20.6275C38.1865 18.3797 35.0395 17 31.2726 17C25.8158 17 21.1031 20.1314 18.8088 24.689L23.3199 28.1925C24.4517 24.8286 27.5831 22.3947 31.2726 22.3947Z" fill="#EB4335"/>
</g>
<defs>
<clipPath id="clip0_100_69">
<rect width="28" height="28" fill="white" transform="translate(17 17)"/>
</clipPath>
</defs>
</svg>
