<svg width="20" height="20" viewBox="0 0 20 20" fill="none" xmlns="http://www.w3.org/2000/svg">
<path d="M13.75 10C13.75 9.83424 13.6842 9.67527 13.5669 9.55806C13.4497 9.44085 13.2908 9.375 13.125 9.375H7.5V5.3125C7.5 4.0625 8.81992 3.125 10 3.125H15.9375C16.5175 3.12562 17.0735 3.35629 17.4836 3.76639C17.8937 4.17649 18.1244 4.73253 18.125 5.3125V14.6875C18.1244 15.2675 17.8937 15.8235 17.4836 16.2336C17.0735 16.6437 16.5175 16.8744 15.9375 16.875H9.6875C9.10753 16.8744 8.55149 16.6437 8.14139 16.2336C7.73129 15.8235 7.50062 15.2675 7.5 14.6875V10.625H13.125C13.2908 10.625 13.4497 10.5592 13.5669 10.4419C13.6842 10.3247 13.75 10.1658 13.75 10Z" fill="#009FE3"/>
<path d="M2.0582 9.55812L5.1832 6.43312C5.30137 6.32086 5.45871 6.2592 5.62169 6.26128C5.78466 6.26337 5.94038 6.32904 6.05563 6.44429C6.17088 6.55954 6.23655 6.71525 6.23863 6.87823C6.24072 7.04121 6.17906 7.19855 6.0668 7.31671L4.00898 9.37492H7.5V10.6249H4.00898L6.0668 12.6831C6.12728 12.7406 6.17564 12.8096 6.20904 12.886C6.24244 12.9625 6.26019 13.0448 6.26126 13.1282C6.26233 13.2116 6.24669 13.2944 6.21526 13.3717C6.18383 13.449 6.13725 13.5192 6.07826 13.5782C6.01927 13.6372 5.94907 13.6837 5.87179 13.7152C5.79452 13.7466 5.71173 13.7622 5.62831 13.7612C5.5449 13.7601 5.46254 13.7424 5.38609 13.709C5.30965 13.6756 5.24066 13.6272 5.1832 13.5667L2.0582 10.4417C1.94108 10.3245 1.87529 10.1656 1.87529 9.99992C1.87529 9.83423 1.94108 9.67532 2.0582 9.55812Z" fill="#009FE3"/>
</svg>
