<svg width="23" height="23" viewBox="0 0 23 23" fill="none" xmlns="http://www.w3.org/2000/svg">
<g clip-path="url(#clip0_88_302)">
<path d="M20.125 18.6875V23C20.0202 22.9401 19.8704 22.8503 19.6758 22.7305C19.4811 22.6107 19.0768 22.2812 18.4629 21.7422C17.849 21.2031 17.235 20.5742 16.6211 19.8555C15.8874 20.0352 15.1387 20.125 14.375 20.125C13.2819 20.125 12.2749 20.0127 11.354 19.7881C10.4331 19.5635 9.68066 19.2865 9.09668 18.957C8.5127 18.6276 8.01481 18.2607 7.60303 17.8564C7.19124 17.4521 6.89925 17.0778 6.72705 16.7334C6.55485 16.389 6.46875 16.082 6.46875 15.8125H8.625C10.5566 15.8125 12.2749 15.4756 13.7798 14.8018C15.2847 14.1279 16.4788 13.1322 17.3623 11.8145C18.2458 10.4967 18.6875 8.95443 18.6875 7.1875C21.5625 8.63997 23 10.6764 23 13.2969C23 15.4382 22.0417 17.235 20.125 18.6875ZM8.625 14.375C7.86133 14.375 7.11263 14.2852 6.37891 14.1055C5.76497 14.8242 5.16602 15.4456 4.58203 15.9697C3.99805 16.4938 3.5638 16.8382 3.2793 17.0029L2.875 17.25V12.9375C0.958333 11.485 0 9.68815 0 7.54688C0 6.18424 0.385579 4.92269 1.15674 3.76221C1.9279 2.60173 2.97607 1.68457 4.30127 1.01074C5.62646 0.336914 7.07145 0 8.63623 0C10.201 0 11.646 0.336914 12.9712 1.01074C14.2964 1.68457 15.3408 2.60173 16.1045 3.76221C16.8682 4.92269 17.25 6.18424 17.25 7.54688C17.25 8.9095 16.8607 10.1149 16.082 11.1631C15.3034 12.2113 14.2627 13.0086 12.96 13.5552C11.6572 14.1017 10.2122 14.375 8.625 14.375ZM8.625 1.4375C7.32227 1.4375 6.12061 1.69206 5.02002 2.20117C3.91943 2.71029 3.0472 3.40658 2.40332 4.29004C1.75944 5.1735 1.4375 6.13558 1.4375 7.17627C1.4375 8.21696 1.75944 9.17904 2.40332 10.0625C3.0472 10.946 3.91943 11.646 5.02002 12.1626C6.12061 12.6792 7.32227 12.9375 8.625 12.9375C9.92773 12.9375 11.1294 12.6792 12.23 12.1626C13.3306 11.646 14.2028 10.946 14.8467 10.0625C15.4906 9.17904 15.8125 8.21696 15.8125 7.17627C15.8125 6.13558 15.4906 5.1735 14.8467 4.29004C14.2028 3.40658 13.3306 2.71029 12.23 2.20117C11.1294 1.69206 9.92773 1.4375 8.625 1.4375Z" fill="#575756"/>
</g>
<path d="M20.125 18.6875V23C20.0202 22.9401 19.8704 22.8503 19.6758 22.7305C19.4811 22.6107 19.0768 22.2812 18.4629 21.7422C17.849 21.2031 17.235 20.5742 16.6211 19.8555C15.8874 20.0352 15.1387 20.125 14.375 20.125C13.2819 20.125 12.2749 20.0127 11.354 19.7881C10.4331 19.5635 9.68066 19.2865 9.09668 18.957C8.5127 18.6276 8.01481 18.2607 7.60303 17.8564C7.19124 17.4521 6.89925 17.0778 6.72705 16.7334C6.55485 16.389 6.46875 16.082 6.46875 15.8125H8.625C10.5566 15.8125 12.2749 15.4756 13.7798 14.8018C15.2847 14.1279 16.4788 13.1322 17.3623 11.8145C18.2458 10.4967 18.6875 8.95443 18.6875 7.1875C21.5625 8.63997 23 10.6764 23 13.2969C23 15.4382 22.0417 17.235 20.125 18.6875Z" fill="#009FE3"/>
<defs>
<clipPath id="clip0_88_302">
<rect width="23" height="23" fill="white"/>
</clipPath>
</defs>
</svg>
