<svg width="28" height="28" viewBox="0 0 28 28" fill="none" xmlns="http://www.w3.org/2000/svg">
<path d="M24.4278 5.09171C24.4278 4.64158 24.249 4.20988 23.9307 3.89159C23.6124 3.5733 23.1807 3.39449 22.7306 3.39449H19.3362V1.69727H17.6389V3.39449H10.85V1.69727H9.15282V3.39449H5.75838C5.30825 3.39449 4.87655 3.5733 4.55826 3.89159C4.23997 4.20988 4.06116 4.64158 4.06116 5.09171V22.0639C4.06116 22.5141 4.23997 22.9458 4.55826 23.264C4.87655 23.5823 5.30825 23.7612 5.75838 23.7612H9.15282V22.0639H5.75838V5.09171H9.15282V6.78893H10.85V5.09171H17.6389V6.78893H19.3362V5.09171H22.7306V10.1834H24.4278V5.09171Z" fill="#575756"/>
<path d="M18.4875 12.7291L20.6506 16.9196L25.2764 17.5908L21.8819 20.8529L22.7306 25.4583L18.4875 23.2842L14.2444 25.4583L15.0931 20.8529L11.6986 17.5908L16.4508 16.9196L18.4875 12.7291Z" fill="#575756"/>
</svg>
