<svg width="18" height="18" viewBox="0 0 18 18" fill="none" xmlns="http://www.w3.org/2000/svg">
<path d="M10.375 13.9375C10.375 14.3851 10.1972 14.8143 9.88074 15.1307C9.56428 15.4472 9.13505 15.625 8.6875 15.625C8.23995 15.625 7.81072 15.4472 7.49426 15.1307C7.17779 14.8143 7 14.3851 7 13.9375C7 13.4899 7.17779 13.0607 7.49426 12.7443C7.81072 12.4278 8.23995 12.25 8.6875 12.25C9.13505 12.25 9.56428 12.4278 9.88074 12.7443C10.1972 13.0607 10.375 13.4899 10.375 13.9375ZM10.375 8.3125C10.375 8.76005 10.1972 9.18928 9.88074 9.50574C9.56428 9.82221 9.13505 10 8.6875 10C8.23995 10 7.81072 9.82221 7.49426 9.50574C7.17779 9.18928 7 8.76005 7 8.3125C7 7.86495 7.17779 7.43572 7.49426 7.11926C7.81072 6.80279 8.23995 6.625 8.6875 6.625C9.13505 6.625 9.56428 6.80279 9.88074 7.11926C10.1972 7.43572 10.375 7.86495 10.375 8.3125ZM10.375 2.6875C10.375 3.13505 10.1972 3.56428 9.88074 3.88074C9.56428 4.19721 9.13505 4.375 8.6875 4.375C8.23995 4.375 7.81072 4.19721 7.49426 3.88074C7.17779 3.56428 7 3.13505 7 2.6875C7 2.23995 7.17779 1.81072 7.49426 1.49426C7.81072 1.17779 8.23995 1 8.6875 1C9.13505 1 9.56428 1.17779 9.88074 1.49426C10.1972 1.81072 10.375 2.23995 10.375 2.6875Z" fill="#009FE3"/>
</svg>
