<svg width="20" height="20" viewBox="0 0 20 20" fill="none" xmlns="http://www.w3.org/2000/svg">
<path d="M2 17.1273C2 14.2956 4.29559 12 7.12734 12H12.8727C15.7044 12 18 14.2956 18 17.1273C18 18.2954 17.2092 19.3096 16.0569 19.5005C14.6146 19.7395 12.4748 20 10 20C7.52524 20 5.3854 19.7395 3.94314 19.5005C2.79076 19.3096 2 18.2954 2 17.1273Z" fill="#009FE3"/>
<path d="M5 5C5 2.23858 7.23858 0 10 0C12.7614 0 15 2.23858 15 5C15 7.76142 12.7614 10 10 10C7.23858 10 5 7.76142 5 5Z" fill="#009FE3"/>
</svg>
